<svg xmlns="http://www.w3.org/2000/svg" viewBox="0 0 33.47 23">
                                                                        <path d="M15.87 0H8.86L2.07 9.78A10.69 10.69 0 000 15.93a6.62 6.62 0 002.13 5.12A7.44 7.44 0 007.36 23a7.13 7.13 0 005.18-2.01 7.34 7.34 0 002.07-5.52 6.35 6.35 0 00-3.22-5.58zm17.6 0h-7.01l-6.79 9.78a10.69 10.69 0 00-2.07 6.15 6.62 6.62 0 002.13 5.12A7.44 7.44 0 0024.96 23a7.13 7.13 0 005.18-2.01 7.34 7.34 0 002.07-5.52 6.35 6.35 0 00-3.22-5.58z" fill="currentColor"/>
                                                                    </svg>