<svg width="24" height="24" viewBox="0 0 24 24" fill="none" xmlns="http://www.w3.org/2000/svg">
<path fill-rule="evenodd" clip-rule="evenodd" d="M2.23133 3.36895C5.26388 2.15593 8.68914 2.43039 11.4898 4.11081L12 4.4169L12.5102 4.11081C15.3109 2.43039 18.7361 2.15593 21.7687 3.36895C22.2104 3.54563 22.5 3.97343 22.5 4.44915V16.108C22.5 16.889 21.7112 17.423 20.9861 17.133C18.5028 16.1396 15.6979 16.3644 13.4044 17.7405L12.2691 18.4216C12.1825 18.4736 12.0899 18.4963 12 18.4947C11.9101 18.4963 11.8175 18.4736 11.7309 18.4216L10.5956 17.7405C8.30215 16.3644 5.49721 16.1396 3.01387 17.133C2.28876 17.423 1.5 16.889 1.5 16.108V4.44915C1.5 3.97343 1.78963 3.54563 2.23133 3.36895ZM12 5.75C12.4142 5.75 12.75 6.08579 12.75 6.5V16C12.75 16.4142 12.4142 16.75 12 16.75C11.5858 16.75 11.25 16.4142 11.25 16V6.5C11.25 6.08579 11.5858 5.75 12 5.75ZM9.27516 19.0422C7.2513 17.8617 4.7487 17.8617 2.72484 19.0422L2.6221 19.1022C2.26431 19.3109 2.14346 19.7701 2.35217 20.1279C2.56088 20.4857 3.02011 20.6065 3.3779 20.3978L3.48065 20.3379C5.03746 19.4298 6.96254 19.4298 8.51935 20.3379L9.60661 20.9721C11.0856 21.8349 12.9144 21.8349 14.3934 20.9721L15.4806 20.3379C17.0375 19.4298 18.9625 19.4298 20.5194 20.3379L20.6221 20.3978C20.9799 20.6065 21.4391 20.4857 21.6478 20.1279C21.8565 19.7701 21.7357 19.3109 21.3779 19.1022L21.2752 19.0422C19.2513 17.8617 16.7487 17.8617 14.7248 19.0422L13.6376 19.6765C12.6257 20.2668 11.3743 20.2668 10.3624 19.6765L9.27516 19.0422Z" fill="url(#paint0_linear_31_102)"/>
<defs>
<linearGradient id="paint0_linear_31_102" x1="6" y1="3" x2="16.5" y2="22" gradientUnits="userSpaceOnUse">
<stop stop-color="#B0A5FF"/>
<stop offset="1" stop-color="#8879F3"/>
</linearGradient>
</defs>
</svg>
