<svg width="24" height="24" viewBox="0 0 24 24" fill="none" xmlns="http://www.w3.org/2000/svg">
<path fill-rule="evenodd" clip-rule="evenodd" d="M7 4C5.34315 4 4 5.34315 4 7C4 8.65685 5.34315 10 7 10C8.65685 10 10 8.65685 10 7C10 5.34315 8.65685 4 7 4ZM17 4C15.3431 4 14 5.34315 14 7C14 8.65685 15.3431 10 17 10C18.6569 10 20 8.65685 20 7C20 5.34315 18.6569 4 17 4ZM4 17C4 15.3431 5.34315 14 7 14C8.65685 14 10 15.3431 10 17C10 18.6569 8.65685 20 7 20C5.34315 20 4 18.6569 4 17ZM17 14C15.3431 14 14 15.3431 14 17C14 18.6569 15.3431 20 17 20C18.6569 20 20 18.6569 20 17C20 15.3431 18.6569 14 17 14Z" fill="url(#paint0_linear_32_301)"/>
<defs>
<linearGradient id="paint0_linear_32_301" x1="4.47059" y1="7.99855" x2="10.7969" y2="20.6038" gradientUnits="userSpaceOnUse">
<stop stop-color="#93BEFF"/>
<stop offset="1" stop-color="#3179E6"/>
</linearGradient>
</defs>
</svg>
